HIERARCHY
ROOT Hips
{
	OFFSET 55.310501 45.591206 43.872097
	CHANNELS 6 Xposition Yposition Zposition Zrotation Xrotation Yrotation
	JOINT Chest
	{
		OFFSET -0.153500 1.163101 7.852402
		CHANNELS 6 Xposition Yposition Zposition Zrotation Xrotation Yrotation
		JOINT Chest2
		{
			OFFSET 0.000000 0.000000 3.343300
			CHANNELS 6 Xposition Yposition Zposition Zrotation Xrotation Yrotation
			JOINT Neck
			{
				OFFSET 0.000000 0.000000 7.785500
				CHANNELS 6 Xposition Yposition Zposition Zrotation Xrotation Yrotation
				JOINT Head
				{
					OFFSET 0.000000 0.000000 2.173901
					CHANNELS 6 Xposition Yposition Zposition Zrotation Xrotation Yrotation
					End Site
					{
						OFFSET 0.000000 0.000000 10.528198
					}
				}
			}
			JOINT LeftCollar
			{
				OFFSET 2.676300 -1.652401 4.938301
				CHANNELS 6 Xposition Yposition Zposition Zrotation Xrotation Yrotation
				JOINT LeftShoulder
				{
					OFFSET 4.299000 0.000000 0.000000
					CHANNELS 6 Xposition Yposition Zposition Zrotation Xrotation Yrotation
					JOINT LeftElbow
					{
						OFFSET 0.000000 0.000000 -10.245102
						CHANNELS 6 Xposition Yposition Zposition Zrotation Xrotation Yrotation
						JOINT LeftWrist
						{
							OFFSET 0.000000 0.000000 -12.703300
							CHANNELS 6 Xposition Yposition Zposition Zrotation Xrotation Yrotation
							End Site
							{
								OFFSET 0.000000 0.000000 -2.173901
							}
						}
					}
				}
			}
			JOINT RightCollar
			{
				OFFSET -2.534599 -1.686401 5.195000
				CHANNELS 6 Xposition Yposition Zposition Zrotation Xrotation Yrotation
				JOINT RightShoulder
				{
					OFFSET -4.144100 0.000000 0.000000
					CHANNELS 6 Xposition Yposition Zposition Zrotation Xrotation Yrotation
					JOINT RightElbow
					{
						OFFSET 0.000000 0.000000 -10.116501
						CHANNELS 6 Xposition Yposition Zposition Zrotation Xrotation Yrotation
						JOINT RightWrist
						{
							OFFSET 0.000000 0.000000 -12.937801
							CHANNELS 6 Xposition Yposition Zposition Zrotation Xrotation Yrotation
							End Site
							{
								OFFSET 0.000000 0.000000 -2.173901
							}
						}
					}
				}
			}
		}
	}
	JOINT LeftHip
	{
		OFFSET 2.175598 0.064499 -2.662899
		CHANNELS 6 Xposition Yposition Zposition Zrotation Xrotation Yrotation
		JOINT LeftKnee
		{
			OFFSET 0.000000 -0.000004 -18.585800
			CHANNELS 6 Xposition Yposition Zposition Zrotation Xrotation Yrotation
			JOINT LeftAnkle
			{
				OFFSET 0.000000 0.000000 -18.979500
				CHANNELS 6 Xposition Yposition Zposition Zrotation Xrotation Yrotation
				End Site
				{
					OFFSET 0.000000 -9.264000 0.000000
				}
			}
		}
	}
	JOINT RightHip
	{
		OFFSET -2.092400 -0.058102 -2.581200
		CHANNELS 6 Xposition Yposition Zposition Zrotation Xrotation Yrotation
		JOINT RightKnee
		{
			OFFSET 0.000000 -0.000004 -18.665001
			CHANNELS 6 Xposition Yposition Zposition Zrotation Xrotation Yrotation
			JOINT RightAnkle
			{
				OFFSET 0.000000 0.000000 -18.566601
				CHANNELS 6 Xposition Yposition Zposition Zrotation Xrotation Yrotation
				End Site
				{
					OFFSET 0.000000 -8.497601 0.000000
				}
			}
		}
	}
}
MOTION
Frames: 6
Frame Time: 0.041667
66.805107 3.316502 48.320198 1463.293062 4.294319 4.090404 -0.153491 1.163104 7.852397 -23.070187 8.016729 0.064102 0.000009 -0.000003 3.343309 7.302030 -3.425885 0.133088 0.000000 -0.000001 7.785512 -5.763489 31.275303 -1.202636 -0.000003 0.000009 2.173907 1.247012 -2.258952 -9.961515 2.676296 -1.652400 4.938304 -2.172171 6.736933 -33.251089 4.298996 0.000000 -0.000001 -34.667172 -20.039223 -137.727882 -0.000010 -0.000003 -10.245091 48.723581 707.154675 3.546283 0.000007 -0.000008 -12.703299 1512.382997 -189.934433 509.189892 -2.534600 -1.686403 5.195004 -2.960351 10.058897 13.625859 -4.144096 0.000002 -0.000008 51.147134 -16.949804 160.842759 0.000008 -0.000002 -10.116498 -66.200044 -11.032166 -19.068172 -0.000001 -0.000002 -12.937807 -347.794681 -359.512280 17.212415 2.175593 0.064496 -2.662902 -725.912177 -1.729105 -7.539357 -0.000001 -0.000010 -18.585800 183.597206 -196.838880 -164.546839 -0.000005 0.000002 -18.979511 754.670443 15.153890 -136.086041 -2.092402 -0.058106 -2.581206 699.525080 -12.352835 4.091795 0.000007 -0.000009 -18.665005 -1426.960389 29.286557 -5.198197 0.000010 -0.000011 -18.566601 739.417592 36.412346 2.612026
66.651505 3.338699 48.428596 1464.145578 4.524812 3.799179 -0.153500 1.163100 7.852403 -23.935017 7.860510 0.050575 0.000013 0.000008 3.343300 9.152810 -3.259199 0.273535 -0.000014 0.000006 7.785508 -5.656435 31.517461 -1.211057 -0.000004 -0.000003 2.173900 1.221251 -2.257643 -10.272971 2.676296 -1.652400 4.938304 -2.138686 6.806133 -33.368462 4.299000 0.000006 0.000008 -34.052813 -20.012396 -137.671260 -0.000003 -0.000008 -10.245098 47.635515 706.975778 3.356784 0.000010 0.000003 -12.703312 1515.509585 -189.426923 509.358243 -2.534600 -1.686397 5.195001 -3.402655 9.642108 14.542282 -4.144098 0.000000 -0.000001 51.112819 -17.146451 159.674469 0.000003 -0.000006 -10.116496 -65.022848 -11.444025 -18.834463 -0.000002 0.000001 -12.937801 -347.128682 -359.451628 17.162621 2.175593 0.064496 -2.662902 -725.353959 -2.027468 -7.527839 0.000003 -0.000011 -18.585794 183.108848 -196.583568 -164.976813 -0.000010 -0.000004 -18.979519 753.485651 16.397280 -136.570739 -2.092403 -0.058102 -2.581203 702.265570 -11.614895 5.018610 0.000004 -0.000005 -18.665005 -1430.922773 27.933006 -4.928034 0.000008 -0.000007 -18.566605 740.545010 36.797617 2.512461
66.511703 3.364006 48.505898 1464.654619 4.816935 3.591438 -0.153495 1.163105 7.852399 -24.457029 7.709223 0.070158 0.000006 0.000007 3.343307 10.359356 -3.173281 0.482025 0.000008 -0.000001 7.785515 -5.198474 31.713374 -1.467602 -0.000004 -0.000002 2.173904 1.259164 -2.224051 -10.495176 2.676300 -1.652399 4.938300 -2.076918 6.986948 -33.670326 4.299004 0.000003 -0.000005 -33.299952 -20.184047 -137.570023 -0.000001 -0.000013 -10.245120 46.663938 706.871030 3.157420 0.000003 0.000011 -12.703306 1517.964956 -189.039801 509.593748 -2.534595 -1.686398 5.195006 -3.342879 9.439004 14.660566 -4.144093 0.000002 -0.000001 50.733894 -16.973128 158.958801 0.000002 -0.000004 -10.116508 -64.369936 -11.750685 -18.804651 0.000007 -0.000004 -12.937800 -346.888424 -359.581074 17.066887 2.175595 0.064498 -2.662903 -724.870765 -2.333896 -7.568069 0.000004 -0.000002 -18.585804 185.654336 -196.748080 -165.877359 -0.000011 0.000008 -18.979519 749.802157 17.497825 -137.341280 -2.092393 -0.058108 -2.581204 702.873075 -11.330376 5.192865 0.000006 -0.000007 -18.665010 -1432.917079 26.918394 -4.554775 0.000003 -0.000005 -18.566601 741.178196 36.944978 2.387639
66.391098 3.397003 48.554897 1464.911762 5.114649 3.371372 -0.153497 1.163097 7.852411 -24.732941 7.568157 0.161902 0.000007 -0.000004 3.343300 11.197827 -3.123783 0.588252 -0.000001 -0.000005 7.785494 -4.740506 31.838985 -1.653983 -0.000002 0.000000 2.173901 1.352772 -2.169278 -10.648860 2.676287 -1.652397 4.938295 -2.086917 7.182011 -33.930525 4.299011 -0.000001 0.000005 -32.578554 -20.498798 -137.379543 0.000000 -0.000004 -10.245107 46.014981 706.808630 2.979695 -0.000000 0.000014 -12.703311 1519.643543 -188.785554 509.819581 -2.534605 -1.686400 5.194995 -3.292174 9.311432 14.834129 -4.144096 0.000006 0.000009 50.304073 -16.862771 158.393098 0.000005 0.000011 -10.116495 -64.175822 -11.908152 -18.943060 -0.000003 -0.000003 -12.937786 -346.568962 -359.715382 16.895180 2.175593 0.064494 -2.662894 -724.420737 -2.642351 -7.537976 -0.000001 -0.000006 -18.585804 185.038185 -196.250610 -165.996150 -0.000011 -0.000001 -18.979511 749.577089 18.429495 -137.613627 -2.092398 -0.058111 -2.581196 703.466263 -11.115730 5.217500 0.000006 -0.000009 -18.665001 -1435.437583 25.894960 -3.976738 0.000004 -0.000003 -18.566603 741.654616 37.079427 2.220678
66.289597 3.441296 48.583897 1464.767071 5.415992 3.180585 -0.153494 1.163103 7.852406 -24.610341 7.454065 0.296313 -0.000003 0.000001 3.343296 11.736720 -3.138164 0.658356 -0.000001 0.000001 7.785501 -4.247465 31.917122 -1.853485 -0.000005 0.000001 2.173901 1.479142 -2.090799 -10.730799 2.676295 -1.652394 4.938296 -1.995744 7.244777 -34.183027 4.298994 0.000001 0.000000 -32.106943 -20.840717 -137.160553 0.000007 0.000004 -10.245106 45.083596 706.793713 2.754307 0.000001 0.000006 -12.703298 1521.178532 -188.568723 510.104427 -2.534598 -1.686396 5.194994 -3.917338 8.777053 15.805258 -4.144098 0.000006 0.000004 50.532864 -17.120260 157.264149 0.000007 -0.000006 -10.116499 -64.147374 -11.995583 -19.052075 0.000003 0.000002 -12.937813 -346.291547 -359.852751 16.668086 2.175591 0.064495 -2.662891 -723.708649 -3.015298 -7.436961 -0.000003 0.000000 -18.585808 184.539772 -195.774504 -165.978842 -0.000001 -0.000003 -18.979515 749.751996 19.248385 -137.780734 -2.092407 -0.058104 -2.581199 704.226873 -10.950939 5.112765 0.000002 -0.000007 -18.665001 -1438.615971 24.819782 -3.212655 0.000002 -0.000008 -18.566597 742.269333 37.278220 1.912136
66.210403 3.498104 48.595791 1464.744012 5.707875 2.938120 -0.153510 1.163108 7.852407 -24.612696 7.359346 0.479572 0.000002 0.000005 3.343301 12.085351 -3.163677 0.705088 0.000003 0.000000 7.785496 -3.782179 31.997210 -2.030171 -0.000005 0.000005 2.173907 1.607403 -2.026750 -10.765977 2.676309 -1.652399 4.938292 -1.897762 7.254391 -34.440751 4.299000 0.000004 0.000002 -31.738048 -21.138739 -136.880201 -0.000001 0.000000 -10.245102 44.268433 706.840759 2.505533 0.000002 0.000002 -12.703295 1522.376056 -188.401807 510.380039 -2.534589 -1.686400 5.194995 -3.900496 8.684545 15.970420 -4.144098 -0.000004 -0.000003 50.344146 -16.939346 156.936492 0.000003 -0.000004 -10.116500 -64.184968 -11.968228 -19.011873 -0.000005 -0.000001 -12.937809 -346.040387 -359.989956 16.413185 2.175586 0.064506 -2.662895 -723.201740 -3.426187 -7.229211 -0.000002 -0.000007 -18.585804 184.106465 -195.374119 -165.859560 -0.000000 0.000001 -18.979511 750.227213 19.947047 -137.825691 -2.092402 -0.058102 -2.581200 704.685261 -10.805286 5.002901 0.000007 -0.000008 -18.665005 -1441.880255 23.719370 -2.512683 0.000003 -0.000002 -18.566607 742.772144 37.505043 1.695684
